<?xml version="1.0" encoding="UTF-8"?><svg id="Layer_2" xmlns="http://www.w3.org/2000/svg" viewBox="0 0 539.4 539.4"><defs><style>.cls-1{fill:#00263e;}</style></defs><g id="Layer_1-2"><g><path class="cls-1" d="M524.33,284.76c8.31,0,15.06-6.76,15.06-15.06s-6.76-15.06-15.06-15.06h-36.98v-46.23h36.98c8.31,0,15.06-6.76,15.06-15.06s-6.76-15.06-15.06-15.06h-43.08c-3.09-6.52-7.32-12.53-12.57-17.78l-90.16-89.79c-5.15-5.15-11.02-9.29-17.39-12.37V15.06c0-8.31-6.76-15.06-15.06-15.06s-15.06,6.76-15.06,15.06V52.04h-46.23V15.06c0-8.31-6.76-15.06-15.06-15.06s-15.06,6.76-15.06,15.06V52.04h-46.23V15.06c0-8.31-6.76-15.06-15.06-15.06s-15.06,6.76-15.06,15.06V58.33c-6.36,3.07-12.23,7.21-17.37,12.35l-90.21,89.83c-5.25,5.25-9.47,11.25-12.56,17.76H15.06c-8.31,0-15.06,6.76-15.06,15.06s6.76,15.06,15.06,15.06H52.04v46.23H15.06c-8.31,0-15.06,6.76-15.06,15.06s6.76,15.06,15.06,15.06H52.04v46.23H15.06c-8.31,0-15.06,6.76-15.06,15.06s6.76,15.06,15.06,15.06H58.33c3.07,6.37,7.22,12.24,12.37,17.39l90.18,90.18c5.15,5.15,11.02,9.3,17.39,12.37v43.27c0,8.31,6.76,15.06,15.06,15.06s15.06-6.76,15.06-15.06v-36.98h46.23v36.98c0,8.31,6.76,15.06,15.06,15.06s15.06-6.76,15.06-15.06v-36.98h46.23v36.98c0,8.31,6.76,15.06,15.06,15.06s15.06-6.76,15.06-15.06v-43.27c6.37-3.07,12.24-7.22,17.39-12.37l90.18-90.18c5.15-5.15,9.29-11.02,12.37-17.39h43.27c8.31,0,15.06-6.76,15.06-15.06s-6.76-15.06-15.06-15.06h-36.98v-46.23h36.98Zm-178.27,110.1H193.34c-8.31,0-15.06-6.76-15.06-15.06s6.76-15.06,15.06-15.06h152.73c8.31,0,15.06,6.76,15.06,15.06s-6.76,15.06-15.06,15.06ZM193.34,144.53h152.73c8.31,0,15.06,6.76,15.06,15.06s-6.76,15.06-15.06,15.06H193.34c-8.31,0-15.06-6.76-15.06-15.06s6.76-15.06,15.06-15.06Zm126.06,103.83c0,12.85-1.21,22.22-7.21,29.26-6.11,7.16-15.57,10.21-31.63,10.21h-25.49v26.08c0,6.26-4.91,11.17-11.18,11.17h-3.97c-6.27,0-11.18-4.9-11.18-11.17v-80.24c0-16.45,8.39-24.79,24.94-24.79h26.89c16.02,0,25.45,3.01,31.54,10.06,6.08,7.04,7.3,16.47,7.3,29.41Zm-200.23,6.66c0-17.62,3.83-28.83,12.41-36.33,7.88-6.89,19.37-9.96,37.28-9.96,11.2,0,19.64,.23,28.23,.77,.19,.01,.37,.03,.55,.05,5.83,.72,10.07,5.45,10.07,11.25v2.57c0,6.26-4.91,11.16-11.18,11.16h-27.66c-10.47,0-16.86,1.17-19.53,3.57-2.47,2.22-3.66,7.7-3.66,16.76v26.95c0,14.37,.95,18.51,22.26,18.51,10.07,0,14.01-.57,15.53-.96,.02-.32,.04-.75,.04-1.35v-33.46c0-6.26,4.91-11.16,11.18-11.16h3.67c6.27,0,11.19,4.9,11.19,11.16v31.34c0,8.11-1.11,18.2-9.77,24.24-6.03,4.21-14.44,5.85-29.99,5.85-18.22,0-29.93-2.97-37.96-9.64-8.63-7.16-12.65-18.23-12.65-34.83v-26.49Zm308.87,32.85c0,14.93-4.57,25.17-13.98,31.31-9.19,6-21.75,6.81-32.81,6.81s-23.64-.81-32.87-6.79c-9.47-6.14-14.07-16.39-14.07-31.32v-67.82c0-6.26,4.91-11.16,11.18-11.16h3.97c6.27,0,11.18,4.9,11.18,11.16v67.82c0,8.13,2.24,9.52,3.08,10.04,3.91,2.42,13.44,2.42,17.52,2.42,9.82,0,15.11-.78,17.68-2.61,2.04-1.45,2.76-4.03,2.76-9.84v-67.82c0-6.26,4.91-11.16,11.18-11.16h3.97c6.27,0,11.18,4.9,11.18,11.16v67.82Zm-345.86-17.37c.01-.27,.04-.54,.04-.81s-.03-.54-.04-.81h0c.01,.27,.04,.54,.04,.81s-.03,.54-.04,.81h0Zm375.06-1.6c-.01,.26-.04,.52-.04,.79s.03,.53,.04,.79h0c-.01-.26-.04-.52-.04-.79s.03-.53,.04-.79h0Z"/><path class="cls-1" d="M280.55,234.7h-25.49v27.33h25.49c9.62,0,11.28-1.33,11.43-1.49,1.07-1.35,1.07-8.94,1.07-12.18,0-2.92,0-10.66-1.16-12.1-.05-.06-1.56-1.56-11.34-1.56Z"/></g></g></svg>